<svg data-v-423bf9ae="" xmlns="http://www.w3.org/2000/svg" viewBox="0 0 258.5294281169449 163" class="iconAbove"><!----><!----><!----><g data-v-423bf9ae="" id="2223cd70-9f63-423f-8ff4-83753271db77" fill="#022239" transform="matrix(6.302521336710863,0,0,6.302521336710863,-4.411768313893646,53.399160185537625)"><path d="M0.70 8.43L4.61 8.43L4.61 8.43Q6.26 8.43 7.14 8.81L7.14 8.81L7.14 8.81Q8.02 9.20 8.39 10.13L8.39 10.13L8.39 10.13Q8.75 11.06 8.75 12.81L8.75 12.81L8.75 12.81Q8.75 14.56 8.39 15.48L8.39 15.48L8.39 15.48Q8.02 16.41 7.14 16.79L7.14 16.79L7.14 16.79Q6.26 17.18 4.61 17.18L4.61 17.18L0.70 17.18L0.70 8.43ZM3.50 10.61L3.50 14.99L4.65 14.99L4.65 14.99Q5.26 14.99 5.50 14.80L5.50 14.80L5.50 14.80Q5.74 14.62 5.74 14.11L5.74 14.11L5.74 11.49L5.74 11.49Q5.74 10.99 5.50 10.80L5.50 10.80L5.50 10.80Q5.26 10.61 4.65 10.61L4.65 10.61L3.50 10.61ZM14.07 9.97L14.07 9.97Q15.64 9.97 16.36 10.86L16.36 10.86L16.36 10.86Q17.08 11.75 17.08 13.68L17.08 13.68L17.08 13.68Q17.08 15.61 16.23 16.50L16.23 16.50L16.23 16.50Q15.37 17.39 13.51 17.39L13.51 17.39L13.51 17.39Q12.42 17.39 11.57 17.26L11.57 17.26L11.57 17.26Q10.72 17.14 9.87 16.83L9.87 16.83L9.87 8.08L12.67 7.87L12.67 10.21L12.67 10.21Q13.27 9.97 14.07 9.97L14.07 9.97ZM14.07 14.90L14.07 12.07L13.22 12.07L13.22 12.07Q12.91 12.07 12.79 12.15L12.79 12.15L12.79 12.15Q12.67 12.24 12.67 12.46L12.67 12.46L12.67 15.29L13.52 15.29L13.52 15.29Q13.83 15.29 13.95 15.20L13.95 15.20L13.95 15.20Q14.07 15.12 14.07 14.90L14.07 14.90ZM21.56 9.97L21.56 9.97Q23.23 9.97 24.00 10.56L24.00 10.56L24.00 10.56Q24.78 11.14 24.78 12.42L24.78 12.42L24.78 17.18L23.38 17.18L22.68 16.48L22.68 16.48Q22.15 16.93 21.54 17.16L21.54 17.16L21.54 17.16Q20.93 17.39 20.30 17.39L20.30 17.39L20.30 17.39Q19.03 17.39 18.44 16.81L18.44 16.81L18.44 16.81Q17.85 16.24 17.85 15.01L17.85 15.01L17.85 15.01Q17.85 14.15 18.21 13.65L18.21 13.65L18.21 13.65Q18.58 13.15 19.38 12.92L19.38 12.92L19.38 12.92Q20.19 12.70 21.56 12.70L21.56 12.70L21.98 12.70L21.98 12.07L21.98 12.07Q21.77 12.01 21.28 12.01L21.28 12.01L21.28 12.01Q19.98 12.01 18.51 12.38L18.51 12.38L18.17 10.44L18.17 10.44Q19.74 9.97 21.56 9.97L21.56 9.97ZM21.01 15.50L21.01 15.50Q21.56 15.50 21.77 15.39L21.77 15.39L21.77 15.39Q21.98 15.27 21.98 14.97L21.98 14.97L21.98 14.10L21.39 14.10L21.39 14.10Q20.85 14.10 20.64 14.22L20.64 14.22L20.64 14.22Q20.43 14.35 20.43 14.69L20.43 14.69L20.43 15.50L21.01 15.50ZM26.11 17.18L26.11 10.18L27.51 10.18L28.21 10.88L28.21 10.88Q29.44 9.97 31.01 9.97L31.01 9.97L31.01 9.97Q31.99 9.97 32.55 10.39L32.55 10.39L32.55 10.39Q33.11 10.82 33.11 11.58L33.11 11.58L33.11 17.18L30.31 17.18L30.31 12.28L29.46 12.28L29.46 12.28Q29.16 12.28 29.04 12.37L29.04 12.37L29.04 12.37Q28.91 12.46 28.91 12.67L28.91 12.67L28.91 17.18L26.11 17.18ZM37.72 14.28L37.24 14.28L37.24 17.18L34.44 17.18L34.44 8.08L37.24 7.87L37.24 12.61L37.69 12.61L38.70 10.18L41.65 10.18L40.03 13.51L41.72 17.18L38.79 17.18L37.72 14.28Z"></path></g><defs data-v-423bf9ae=""><linearGradient data-v-423bf9ae="" gradientTransform="rotate(25)" id="5fe03d0c-9274-4274-9cbb-ba776450d4eb" x1="0%" y1="0%" x2="100%" y2="0%"><stop data-v-423bf9ae="" offset="0%" style="stop-color: rgb(0, 10, 104); stop-opacity: 1;"></stop><stop data-v-423bf9ae="" offset="100%" style="stop-color: rgb(0, 196, 238); stop-opacity: 1;"></stop></linearGradient></defs><g data-v-423bf9ae="" id="650d239f-0056-4794-b4b8-a5b4501763c4" transform="matrix(1.0344827586206897,0,0,1.0344827586206897,77.77586206896552,-6.224137931034484)" stroke="none" fill="url(#5fe03d0c-9274-4274-9cbb-ba776450d4eb)"><path d="M50 93.5C26.014 93.5 6.5 73.986 6.5 50S26.014 6.5 50 6.5 93.5 26.014 93.5 50 73.986 93.5 50 93.5zm0-86C26.565 7.5 7.5 26.565 7.5 50S26.565 92.5 50 92.5 92.5 73.435 92.5 50 73.435 7.5 50 7.5z"></path><path d="M50 87.475c-20.664 0-37.474-16.812-37.474-37.475 0-20.664 16.811-37.474 37.474-37.474 20.663 0 37.475 16.811 37.475 37.474 0 20.663-16.812 37.475-37.475 37.475zm0-74.001C29.86 13.474 13.474 29.86 13.474 50c0 20.141 16.386 36.525 36.526 36.525 20.141 0 36.525-16.385 36.525-36.525 0-20.14-16.384-36.526-36.525-36.526zM50 10.582l-.797.418.152-.887-.644-.627.891-.13.398-.807.397.807.891.13-.644.627.152.887z"></path><path d="M75.338 19.803l-.879-.192.686-.582-.09-.894.765.473.824-.362-.214.874.599.671-.896.067-.454.777zM88.82 43.154l-.549-.712.899-.004.506-.745.282.856.863.252-.725.531.027.9-.728-.525-.848.303zM84.139 69.709l.036-.899.692.575.866-.246-.334.837.499.749-.896-.061-.559.708-.219-.871-.845-.313zM63.483 87.041l.607-.666.16.887.822.367-.795.427-.098.894-.648-.622-.883.184.391-.809-.445-.783zM36.52 87.041l.892-.12-.447.782.394.811-.883-.185-.651.622-.096-.892-.794-.428.819-.367.162-.887zM15.865 69.709l.76.482-.845.312-.219.874-.559-.709-.898.059.5-.747-.333-.837.863.246.695-.577zM11.183 43.156l.272.858-.848-.305-.73.529.029-.902-.726-.532.863-.25.283-.857.503.743.902.005zM24.664 19.805l-.343.832-.454-.779-.899-.063.602-.673-.214-.874.822.363.767-.474-.092.892.688.584zM62.607 12.724l-.89.131.436-.786-.4-.805.883.172.642-.631.11.894.798.416-.816.38-.149.886zM83.478 29.797l-.767-.471.84-.323.21-.874.566.7.897-.07-.491.754.345.831-.869-.232-.685.583zM88.49 56.291l-.284-.853.851.291.723-.535-.016.902.731.522-.86.262-.272.859-.513-.737-.901.006zM75.3 79.809l.331-.837.464.771.898.054-.592.68.224.872-.826-.354-.761.484.08-.895-.693-.574zM50.079 89.346l.792-.429-.142.89.655.618-.891.14-.389.812-.405-.801-.894-.118.635-.635-.161-.885zM24.629 80.439l.881.181-.68.591.104.895-.772-.465-.82.372.204-.874-.608-.667.894-.076.446-.783zM10.858 57.257l.559.707-.902.015-.495.752-.293-.853-.867-.241.719-.539-.038-.902.733.518.846-.315zM15.209 30.648l-.026.899-.7-.567-.864.258.326-.842-.51-.742.898.049.549-.715.23.868.849.302zM35.646 13.06l-.597.672-.172-.884-.828-.357.791-.436.087-.896.656.614.88-.194-.381.812.456.778zM51.402 66.717c1.596 0 3.063-.27 4.401-.81 1.337-.538 2.513-1.294 3.526-2.265s1.845-2.113 2.492-3.43c.647-1.315 1.057-2.751 1.229-4.304h1.294c-.475 3.797-1.909 6.741-4.304 8.834s-5.382 3.159-8.963 3.203V75h-1.294v-7.054c-2.33-.087-4.358-.626-6.084-1.618s-3.161-2.286-4.304-3.883c-1.144-1.596-1.996-3.419-2.557-5.469A24.393 24.393 0 0 1 36 50.537c0-2.156.291-4.249.874-6.277.582-2.027 1.444-3.839 2.588-5.436a13.894 13.894 0 0 1 4.304-3.916c1.726-1.013 3.731-1.563 6.02-1.65v-5.695h1.294v5.695c1.683.043 3.269.302 4.757.777 1.488.475 2.804 1.165 3.947 2.071a11.103 11.103 0 0 1 2.815 3.333c.733 1.316 1.207 2.858 1.424 4.627h-1.294c-.259-1.553-.724-2.923-1.392-4.109-.67-1.186-1.511-2.168-2.524-2.945-1.014-.776-2.179-1.369-3.494-1.779-1.317-.41-2.729-.636-4.239-.68v32.165h.322zm-7.151-30.612c-1.575.949-2.88 2.168-3.915 3.656s-1.802 3.171-2.298 5.048-.744 3.786-.744 5.728c0 1.985.248 3.927.744 5.825s1.263 3.603 2.298 5.112a12.508 12.508 0 0 0 3.915 3.688c1.575.95 3.419 1.468 5.534 1.554V34.552c-2.115.087-3.959.605-5.534 1.553z"></path></g><!----></svg>